<?xml version="1.0" encoding="utf-8"?>
<!-- Generator: Adobe Illustrator 17.1.0, SVG Export Plug-In . SVG Version: 6.00 Build 0)  -->
<!DOCTYPE svg PUBLIC "-//W3C//DTD SVG 1.1//EN" "http://www.w3.org/Graphics/SVG/1.1/DTD/svg11.dtd" [
	<!ENTITY ns_flows "http://ns.adobe.com/Flows/1.0/">
	<!ENTITY ns_extend "http://ns.adobe.com/Extensibility/1.0/">
	<!ENTITY ns_ai "http://ns.adobe.com/AdobeIllustrator/10.0/">
	<!ENTITY ns_graphs "http://ns.adobe.com/Graphs/1.0/">
	<!ENTITY ns_vars "http://ns.adobe.com/Variables/1.0/">
	<!ENTITY ns_imrep "http://ns.adobe.com/ImageReplacement/1.0/">
	<!ENTITY ns_sfw "http://ns.adobe.com/SaveForWeb/1.0/">
	<!ENTITY ns_custom "http://ns.adobe.com/GenericCustomNamespace/1.0/">
	<!ENTITY ns_adobe_xpath "http://ns.adobe.com/XPath/1.0/">
]>
<svg version="1.1" id="Layer_1" xmlns:x="&ns_extend;" xmlns:i="&ns_ai;" xmlns:graph="&ns_graphs;"
	 xmlns="http://www.w3.org/2000/svg" xmlns:xlink="http://www.w3.org/1999/xlink" xmlns:a="http://ns.adobe.com/AdobeSVGViewerExtensions/3.0/"
	 x="0px" y="0px" viewBox="0 70 36 36" enable-background="new 0 70 36 36" xml:space="preserve">
<switch>
	<g i:extraneous="self">
		<path id="stroke" opacity="0.3" fill="#FFFFFF" enable-background="new    " d="M18,70C8.1,70,0,78.1,0,88s8.1,18,18,18
			s18-8.1,18-18S27.9,70,18,70z M18,104c-8.8,0-16-7.2-16-16s7.2-16,16-16s16,7.2,16,16S26.8,104,18,104z"/>
		<path id="icon" fill="#FFFFFF" d="M18,103c-4.6,0-8.8-2.1-11.6-5.4c0.1-0.8,0.2-1.5,0.2-1.8c0.2-0.9,1-1.4,3.6-2.4s4-1.5,4-1.5
			l0.6-1.2h0.7c0,0,0-0.6,0-0.7c-0.5-0.3-0.7-0.6-0.8-2.1c-0.9-0.3-1.1-2.2-1-2.7s0.3-0.5,0.4-0.4c-0.2-0.7-0.5-2.5-0.5-3.3
			s0.8-2.2,0.8-2.2H15c0,0,0.5-1.3,2.4-1.3s3.3,0.7,4.1,1.9c0.8,1.2,1.1,2.7,0.5,4.8c0.2-0.2,0.5,0,0.4,0.6c-0.1,0.6,0,2-1.1,2.6
			c-0.1,0.9,0.1,1.5-0.8,2c-0.1,0.1,0,0.8,0,0.8h0.6l0.7,1.2c0,0,2,0.7,3.9,1.3c1.9,0.7,3.4,1.4,3.5,2.3c0,0.3,0.1,1.1,0.2,2.1
			C26.8,100.9,22.6,103,18,103z"/>
	</g>
</switch>
</svg>
