<?xml version="1.0" encoding="utf-8"?>
<!-- Generator: Adobe Illustrator 17.1.0, SVG Export Plug-In . SVG Version: 6.00 Build 0)  -->
<!DOCTYPE svg PUBLIC "-//W3C//DTD SVG 1.1//EN" "http://www.w3.org/Graphics/SVG/1.1/DTD/svg11.dtd" [
	<!ENTITY ns_flows "http://ns.adobe.com/Flows/1.0/">
	<!ENTITY ns_extend "http://ns.adobe.com/Extensibility/1.0/">
	<!ENTITY ns_ai "http://ns.adobe.com/AdobeIllustrator/10.0/">
	<!ENTITY ns_graphs "http://ns.adobe.com/Graphs/1.0/">
	<!ENTITY ns_vars "http://ns.adobe.com/Variables/1.0/">
	<!ENTITY ns_imrep "http://ns.adobe.com/ImageReplacement/1.0/">
	<!ENTITY ns_sfw "http://ns.adobe.com/SaveForWeb/1.0/">
	<!ENTITY ns_custom "http://ns.adobe.com/GenericCustomNamespace/1.0/">
	<!ENTITY ns_adobe_xpath "http://ns.adobe.com/XPath/1.0/">
]>
<svg version="1.1" id="Layer_1" xmlns:x="&ns_extend;" xmlns:i="&ns_ai;" xmlns:graph="&ns_graphs;"
	 xmlns="http://www.w3.org/2000/svg" xmlns:xlink="http://www.w3.org/1999/xlink" xmlns:a="http://ns.adobe.com/AdobeSVGViewerExtensions/3.0/"
	 x="0px" y="0px" viewBox="0 70 36 36" enable-background="new 0 70 36 36" xml:space="preserve">
<switch>
	<g i:extraneous="self">
		<path id="stroke" fill="#FFFFFF" d="M18,70C8.1,70,0,78.1,0,88s8.1,18,18,18s18-8.1,18-18S27.9,70,18,70z M18,104
			c-8.8,0-16-7.2-16-16s7.2-16,16-16s16,7.2,16,16S26.8,104,18,104z"/>
		<path id="icon" fill="#FFFFFF" d="M25,80H11c-1.1,0-2,0.9-2,2v10c0,1.1,0.9,2,2,2h1.3c0.4,0,0.7,0.3,0.7,0.7V99l4.5-4.5
			c0.3-0.3,0.8-0.5,1.3-0.5H25c1.1,0,2-0.9,2-2V82C27,80.9,26.1,80,25,80z"/>
	</g>
</switch>
</svg>
