<?xml version="1.0" encoding="utf-8"?>
<!-- Generator: Adobe Illustrator 17.1.0, SVG Export Plug-In . SVG Version: 6.00 Build 0)  -->
<!DOCTYPE svg PUBLIC "-//W3C//DTD SVG 1.1//EN" "http://www.w3.org/Graphics/SVG/1.1/DTD/svg11.dtd">
<svg version="1.1" id="search_icon_1_" xmlns="http://www.w3.org/2000/svg" xmlns:xlink="http://www.w3.org/1999/xlink" x="0px"
	 y="0px" width="20px" height="20px" viewBox="0 0 20 20" enable-background="new 0 0 20 20" xml:space="preserve">
<g id="search_icon">
	<g>
		<path fill-rule="evenodd" clip-rule="evenodd" fill="#417EDA" d="M14.8,13.1c1.3-1.4,2-3.2,2-5.2c0-4.4-3.8-7.9-8.4-7.9
			C3.8,0,0,3.5,0,7.9c0,4.4,3.8,7.9,8.4,7.9c1.4,0,2.8-0.3,4-0.9l5.4,5.1L20,18L14.8,13.1z M8.4,12.9c-2.9,0-5.3-2.2-5.3-5
			c0-2.8,2.4-5,5.3-5c2.9,0,5.3,2.2,5.3,5C13.8,10.7,11.4,12.9,8.4,12.9z"/>
	</g>
</g>
</svg>
