<?xml version="1.0" encoding="utf-8"?>
<!-- Generator: Adobe Illustrator 17.1.0, SVG Export Plug-In . SVG Version: 6.00 Build 0)  -->
<!DOCTYPE svg PUBLIC "-//W3C//DTD SVG 1.1//EN" "http://www.w3.org/Graphics/SVG/1.1/DTD/svg11.dtd" [
	<!ENTITY ns_flows "http://ns.adobe.com/Flows/1.0/">
	<!ENTITY ns_extend "http://ns.adobe.com/Extensibility/1.0/">
	<!ENTITY ns_ai "http://ns.adobe.com/AdobeIllustrator/10.0/">
	<!ENTITY ns_graphs "http://ns.adobe.com/Graphs/1.0/">
	<!ENTITY ns_vars "http://ns.adobe.com/Variables/1.0/">
	<!ENTITY ns_imrep "http://ns.adobe.com/ImageReplacement/1.0/">
	<!ENTITY ns_sfw "http://ns.adobe.com/SaveForWeb/1.0/">
	<!ENTITY ns_custom "http://ns.adobe.com/GenericCustomNamespace/1.0/">
	<!ENTITY ns_adobe_xpath "http://ns.adobe.com/XPath/1.0/">
]>
<svg version="1.1" id="Layer_1" xmlns:x="&ns_extend;" xmlns:i="&ns_ai;" xmlns:graph="&ns_graphs;"
	 xmlns="http://www.w3.org/2000/svg" xmlns:xlink="http://www.w3.org/1999/xlink" xmlns:a="http://ns.adobe.com/AdobeSVGViewerExtensions/3.0/"
	 x="0px" y="0px" width="198" height="36" viewBox="0 3.5 198 36" xml:space="preserve">
<switch>
	<g i:extraneous="self">
		<path fill="#C8D92B" d="M123.2,9.4c-2.9,0-5.3,2.4-5.3,5.3v5.6c0,0.5,0.4,0.8,0.8,0.8c0.4,0,0.8-0.3,0.8-0.8v-5.8
			c0-2.1,1.7-3.8,3.8-3.8c2.1,0,3.8,1.7,3.8,3.8v5.8c0,0.4,0.3,0.8,0.8,0.8c0.4,0,0.8-0.3,0.8-0.8v-5.6
			C128.6,11.8,126.2,9.4,123.2,9.4z M136,9.4c-1.5,0-3,0.6-4.1,1.7c-1.1,1.1-1.6,2.6-1.6,4.2c0,1.6,0.6,3.1,1.7,4.2
			c1.1,1.1,2.6,1.7,4.2,1.7c1.8,0,3.7-0.8,4.8-2.3c0.2-0.3,0.2-0.7-0.1-0.9c-0.3-0.2-0.6-0.2-0.9,0.1c-1,1.1-2.3,1.8-3.8,1.8
			c-1.1,0-2.2-0.4-3-1.2c-0.8-0.8-1.3-1.8-1.3-3h9.2c0.4,0,0.6-0.2,0.6-0.5c0-1.5-0.6-3-1.6-4.1C138.9,10,137.5,9.4,136,9.4z
			 M131.8,14.5c0.2-2.1,2-3.8,4.1-3.8c1,0,2,0.4,2.8,1.1c0.8,0.7,1.2,1.7,1.3,2.7H131.8z M148.4,9.7h-2.3V5.9c0-0.4-0.3-0.8-0.7-0.8
			c-0.4,0-0.8,0.3-0.8,0.8v3.8h-2c-0.4,0-0.6,0.3-0.6,0.6c0,0.4,0.2,0.6,0.6,0.6h2v9.3c0,0.4,0.4,0.7,0.8,0.7c0.4,0,0.7-0.3,0.7-0.7
			V11h2.3c0.4,0,0.6-0.3,0.6-0.6C149,10,148.7,9.7,148.4,9.7z M165.2,9.6c-0.4-0.1-0.8,0-0.9,0.4l-3.1,8.4l-2.7-8.4
			c-0.1-0.3-0.3-0.5-0.6-0.5c-0.3,0-0.6,0.2-0.6,0.5l-2.7,8.4l-3.1-8.4c-0.2-0.4-0.5-0.5-0.9-0.4c-0.3,0.1-0.5,0.5-0.4,0.9
			c0.9,2.6,3.8,10.2,3.8,10.2c0.1,0.3,0.4,0.5,0.7,0.5c0.3,0,0.5-0.2,0.6-0.5l2.7-8.2l2.7,8.2c0.1,0.3,0.3,0.5,0.6,0.5
			c0.3,0,0.6-0.2,0.7-0.5l3.8-10.2C165.7,10.1,165.5,9.7,165.2,9.6z M176.3,19.5C176.4,19.3,176.5,19.3,176.3,19.5
			C176.4,19.4,176.4,19.4,176.3,19.5C176.4,19.4,176.4,19.4,176.3,19.5C175.6,20.2,176.1,19.7,176.3,19.5z M176.3,11.1
			c-1.1-1.1-2.6-1.7-4.2-1.7c-1.6,0-3.1,0.6-4.2,1.7c-1.1,1.1-1.7,2.6-1.7,4.2c0,1.6,0.6,3.1,1.7,4.2c1.1,1.1,2.6,1.7,4.2,1.7
			c1.6,0,3.1-0.6,4.2-1.7c1.1-1.1,1.7-2.6,1.7-4.2C178,13.7,177.4,12.2,176.3,11.1z M175.3,18.5c-0.8,0.9-2,1.3-3.1,1.3
			c-1.2,0-2.3-0.5-3.1-1.3c-0.8-0.9-1.2-2-1.2-3.2c0-1.2,0.4-2.3,1.2-3.2c0.8-0.8,1.9-1.3,3.1-1.3c1.2,0,2.3,0.5,3.1,1.3
			c0.8,0.9,1.3,2,1.3,3.2C176.5,16.5,176.1,17.6,175.3,18.5z M186,9.4c-1,0-1.8,0.2-2.6,0.6c-0.7,0.4-1.3,0.9-1.8,1.6v-1.3
			c0-0.4-0.3-0.8-0.8-0.8c-0.4,0-0.7,0.3-0.7,0.8v10c0,0.4,0.3,0.8,0.7,0.8c0.4,0,0.8-0.4,0.8-0.8v-5.6c0-1.1,0.5-2.1,1.3-2.9
			c0.8-0.7,1.9-1.1,3-1.1c0.4,0,0.7-0.3,0.7-0.7C186.6,9.7,186.4,9.4,186,9.4z M197.9,19.9l-4.8-5.6l4.4-3.6c0.3-0.2,0.4-0.7,0.1-1
			c-0.2-0.3-0.7-0.3-1-0.1l-6.3,5V4.3c0-0.4-0.3-0.8-0.7-0.8c-0.4,0-0.8,0.3-0.8,0.8v16c0,0.4,0.4,0.8,0.8,0.8
			c0.4,0,0.7-0.4,0.7-0.8v-3.8l1.6-1.3l4.9,5.7c0.2,0.3,0.7,0.3,1,0.1C198,20.7,198.1,20.2,197.9,19.9z"/>
		<path fill="#FFFFFF" d="M103.7,21.4h-15c-1.7,0-3-1.4-3-3c0-1.7,1.4-3,3-3h20.4c0.3,0,0.6-0.3,0.6-0.6V9.9c0-0.3-0.3-0.6-0.6-0.6
			H88.8c-5,0-9.1,4.1-9.1,9.1c0,5,4.1,9.1,9.1,9.1h15c1.7,0,3,1.4,3,3c0,1.7-1.4,3-3,3H80.3c-0.3,0-0.6,0.3-0.6,0.6v4.8
			c0,0.3,0.3,0.6,0.6,0.6h23.4c5,0,9.1-4.1,9.1-9.1C112.8,25.4,108.7,21.4,103.7,21.4z M32.1,9.3c-0.3,0-0.8,0.2-1,0.4l-8.7,8.7
			c-0.1,0.1-0.1,0.3,0,0.4l3.8,3.8c0.1,0.1,0.3,0.1,0.4,0l13-13c0.2-0.2,0.2-0.4-0.2-0.4H32.1z M26.6,26.1c-0.1-0.1-0.3-0.1-0.4,0
			l-3.8,3.8c-0.1,0.1-0.1,0.3,0,0.4l8.7,8.7c0.2,0.2,0.7,0.4,1,0.4h7.3c0.3,0,0.4-0.2,0.2-0.4L26.6,26.1z M67.9,9.3H44.5
			c-0.3,0-0.6,0.3-0.6,0.6v29c0,0.3,0.3,0.6,0.6,0.6h4.8c0.3,0,0.6-0.3,0.6-0.6V27.4h18c5,0,9.1-4.1,9.1-9.1v0
			C77,13.3,72.9,9.3,67.9,9.3z M67.9,21.4h-18v-6h18c1.7,0,3,1.4,3,3C70.9,20,69.6,21.4,67.9,21.4z"/>
		<path fill="#95B33C" d="M9.4,9.3H0.3C0,9.3-0.1,9.5,0.1,9.7l14.7,14.7L0.1,39.1c-0.2,0.2-0.2,0.4,0.2,0.4h9.1c0.3,0,0.8-0.2,1-0.4
			c2.3-2.3,12.7-12.7,13.5-13.5c0.9-0.9,0.9-1.5,0-2.4C23.1,22.4,12.7,12,10.4,9.7C10.2,9.5,9.7,9.3,9.4,9.3z"/>
		<path fill="#D6DE23" d="M18.8,18.1c0.9,0.9,0.9,1.5,0,2.4c-0.3,0.3-2.4,2.4-4.8,4.8L0.1,39.1c-0.2,0.2-0.2,0.4,0.2,0.4h9.1
			c0.3,0,0.8-0.2,1-0.4c2.3-2.3,12.7-12.7,13.5-13.5c0.9-0.9,0.9-1.5,0-2.4C23.6,22.8,21.4,20.6,18.8,18.1z"/>
	</g>
</switch>
</svg>
