<?xml version="1.0" encoding="utf-8"?>
<!-- Generator: Adobe Illustrator 17.1.0, SVG Export Plug-In . SVG Version: 6.00 Build 0)  -->
<!DOCTYPE svg PUBLIC "-//W3C//DTD SVG 1.1//EN" "http://www.w3.org/Graphics/SVG/1.1/DTD/svg11.dtd" [
	<!ENTITY ns_flows "http://ns.adobe.com/Flows/1.0/">
	<!ENTITY ns_extend "http://ns.adobe.com/Extensibility/1.0/">
	<!ENTITY ns_ai "http://ns.adobe.com/AdobeIllustrator/10.0/">
	<!ENTITY ns_graphs "http://ns.adobe.com/Graphs/1.0/">
	<!ENTITY ns_vars "http://ns.adobe.com/Variables/1.0/">
	<!ENTITY ns_imrep "http://ns.adobe.com/ImageReplacement/1.0/">
	<!ENTITY ns_sfw "http://ns.adobe.com/SaveForWeb/1.0/">
	<!ENTITY ns_custom "http://ns.adobe.com/GenericCustomNamespace/1.0/">
	<!ENTITY ns_adobe_xpath "http://ns.adobe.com/XPath/1.0/">
]>
<svg version="1.1" id="Layer_1" xmlns:x="&ns_extend;" xmlns:i="&ns_ai;" xmlns:graph="&ns_graphs;"
	 xmlns="http://www.w3.org/2000/svg" xmlns:xlink="http://www.w3.org/1999/xlink" xmlns:a="http://ns.adobe.com/AdobeSVGViewerExtensions/3.0/"
	 x="0px" y="0px" viewBox="0 70 36 36" enable-background="new 0 70 36 36" xml:space="preserve">
<switch>
	<g i:extraneous="self">
		<path id="stroke" opacity="0.3" fill="#FFFFFF" enable-background="new    " d="M18,70C8.1,70,0,78.1,0,88s8.1,18,18,18
			s18-8.1,18-18S27.9,70,18,70z M18,104c-8.8,0-16-7.2-16-16s7.2-16,16-16s16,7.2,16,16S26.8,104,18,104z"/>
		<path id="icon" fill="#FFFFFF" d="M20,95.7c0.7-0.2,1.3-0.4,2-0.8l1.7,1.3c1-0.7,1.8-1.5,2.5-2.5L24.9,92c0.4-0.6,0.6-1.2,0.8-1.9
			l2.2-0.6c0.1-0.5,0.1-1,0.1-1.6c0-0.5-0.1-1-0.1-1.5L25.7,86c-0.2-0.7-0.4-1.3-0.8-2l1.5-1.5c-0.7-1.1-1.6-2-2.7-2.8L22,81
			c-0.6-0.4-1.2-0.6-1.9-0.8l-0.5-2.1c-0.5,0-1-0.1-1.6-0.1c-0.5,0-1.1,0.1-1.6,0.1L16,80.3c-0.7,0.2-1.3,0.4-2,0.8l-1.7-1.3
			c-1,0.7-1.8,1.5-2.5,2.5l1.3,1.7c-0.4,0.6-0.6,1.2-0.8,1.9l-2.1,0.5C8.1,86.9,8,87.4,8,88c0,0.5,0.1,1.1,0.1,1.6l2.1,0.4
			c0.2,0.7,0.4,1.3,0.8,2l-1.3,1.7c0.7,1,1.5,1.8,2.5,2.5l1.7-1.3c0.6,0.4,1.2,0.6,1.9,0.8l0.5,2.1c0.5,0.1,1.1,0.2,1.7,0.2
			c0.5,0,1.1-0.1,1.6-0.1L20,95.7z M13,88c0-2.8,2.2-5,5-5s5,2.2,5,5s-2.2,5-5,5S13,90.8,13,88z"/>
	</g>
</switch>
</svg>
